<svg width="128" height="128" viewBox="0 0 128 128" fill="none" xmlns="http://www.w3.org/2000/svg">
<rect width="128" height="128" fill="#8338EC"/>
<g filter="url(#filter0_d_45_246)">
<path d="M62.9996 89.125L60.14 86.5443C55.2112 82.034 51.1425 78.1398 47.9341 74.8616C44.7258 71.5835 42.1683 68.6541 40.2619 66.0734C38.3555 63.4928 37.0186 61.1562 36.2514 59.0638C35.4842 56.9714 35.1006 54.8557 35.1006 52.7167C35.1006 48.5319 36.5072 45.0329 39.3203 42.2197C42.1335 39.4066 45.6092 38 49.7476 38C52.398 38 54.8508 38.6277 57.106 39.8832C59.3611 41.1386 61.3257 42.9521 62.9996 45.3235C64.9526 42.8126 67.0218 40.9643 69.2072 39.7786C71.3926 38.5929 73.7408 38 76.2517 38C80.39 38 83.8658 39.4066 86.679 42.2197C89.4921 45.0329 90.8987 48.5319 90.8987 52.7167C90.8987 54.8557 90.5151 56.9714 89.7479 59.0638C88.9806 61.1562 87.6438 63.4928 85.7374 66.0734C83.8309 68.6541 81.2735 71.5835 78.0651 74.8616C74.8567 78.1398 70.7881 82.034 65.8593 86.5443L62.9996 89.125Z" fill="white"/>
<path d="M76.252 35.6084C80.9959 35.6085 85.0889 37.2471 88.3701 40.5283C91.657 43.8152 93.29 47.9343 93.29 52.7168C93.29 55.1482 92.8529 57.5419 91.9932 59.8867C91.1216 62.2636 89.6487 64.8036 87.6611 67.4941C85.6679 70.1922 83.0301 73.2077 79.7744 76.5342C76.525 79.8543 72.4217 83.7807 67.4736 88.3086L67.4678 88.3145L67.4609 88.3193L64.6016 90.9004L63 92.3457L61.3975 90.9004L58.5381 88.3193L58.5312 88.3145L58.5254 88.3086C53.5775 83.7808 49.475 79.8542 46.2256 76.5342C42.9698 73.2077 40.3321 70.1923 38.3389 67.4941C36.3512 64.8035 34.8774 62.2637 34.0059 59.8867C33.1462 57.5419 32.709 55.1481 32.709 52.7168C32.709 47.9343 34.342 43.8152 37.6289 40.5283C40.9102 37.247 45.0039 35.6084 49.748 35.6084C52.794 35.6085 55.649 36.3351 58.2695 37.7939C60.0406 38.78 61.6344 40.054 63.0566 41.5938C64.6174 39.9623 66.2841 38.6438 68.0664 37.6768C70.6055 36.2992 73.3468 35.6084 76.252 35.6084Z" stroke="black" stroke-width="4.78269"/>
</g>
<defs>
<filter id="filter0_d_45_246" x="30.3179" y="33.2173" width="71.3416" height="69.524" filterUnits="userSpaceOnUse" color-interpolation-filters="sRGB">
<feFlood flood-opacity="0" result="BackgroundImageFix"/>
<feColorMatrix in="SourceAlpha" type="matrix" values="0 0 0 0 0 0 0 0 0 0 0 0 0 0 0 0 0 0 127 0" result="hardAlpha"/>
<feOffset dx="5.97837" dy="7.17404"/>
<feComposite in2="hardAlpha" operator="out"/>
<feColorMatrix type="matrix" values="0 0 0 0 0 0 0 0 0 0 0 0 0 0 0 0 0 0 1 0"/>
<feBlend mode="normal" in2="BackgroundImageFix" result="effect1_dropShadow_45_246"/>
<feBlend mode="normal" in="SourceGraphic" in2="effect1_dropShadow_45_246" result="shape"/>
</filter>
</defs>
</svg>
